<svg xmlns="http://www.w3.org/2000/svg" viewBox="0 0 720 720" role="img" aria-labelledby="title desc">
  <title id="title">JEJO Studios AB</title>
  <desc id="desc">Neonblå tech-logga för JEJO Studios AB.</desc>
  <defs>
    <linearGradient id="cyanBlue" x1="130" y1="110" x2="590" y2="570" gradientUnits="userSpaceOnUse">
      <stop stop-color="#22f7ff"/>
      <stop offset=".55" stop-color="#1bb8ff"/>
      <stop offset="1" stop-color="#2864ff"/>
    </linearGradient>
    <filter id="glow" x="-30%" y="-30%" width="160%" height="160%">
      <feGaussianBlur stdDeviation="8" result="blur"/>
      <feColorMatrix in="blur" type="matrix" values="0 0 0 0 0.06 0 0 0 0 0.88 0 0 0 0 1 0 0 0 .85 0"/>
      <feMerge>
        <feMergeNode/>
        <feMergeNode in="SourceGraphic"/>
      </feMerge>
    </filter>
  </defs>
  <rect width="720" height="720" fill="none"/>
  <g fill="none" stroke="#2f68ff" stroke-width="5" stroke-linecap="round" stroke-linejoin="round" opacity=".78">
    <path d="M70 250h55l48 48h112"/>
    <path d="M70 310h58l45-45h112"/>
    <path d="M96 374h54l58-58h78"/>
    <path d="M560 270h70"/>
    <path d="M548 320h82"/>
    <path d="M550 370h74"/>
    <ellipse cx="526" cy="270" rx="17" ry="8"/>
    <path d="M509 270v18c0 4 8 8 17 8s17-4 17-8v-18"/>
    <ellipse cx="526" cy="320" rx="17" ry="8"/>
    <path d="M509 320v18c0 4 8 8 17 8s17-4 17-8v-18"/>
    <ellipse cx="526" cy="370" rx="17" ry="8"/>
    <path d="M509 370v18c0 4 8 8 17 8s17-4 17-8v-18"/>
    <g opacity=".7">
      <circle cx="242" cy="248" r="3"/>
      <circle cx="258" cy="248" r="3"/>
      <circle cx="274" cy="248" r="3"/>
      <circle cx="242" cy="266" r="3"/>
      <circle cx="258" cy="266" r="3"/>
      <circle cx="274" cy="266" r="3"/>
      <circle cx="242" cy="284" r="3"/>
      <circle cx="258" cy="284" r="3"/>
      <circle cx="274" cy="284" r="3"/>
      <circle cx="462" cy="248" r="3"/>
      <circle cx="478" cy="248" r="3"/>
      <circle cx="494" cy="248" r="3"/>
      <circle cx="462" cy="266" r="3"/>
      <circle cx="478" cy="266" r="3"/>
      <circle cx="494" cy="266" r="3"/>
      <circle cx="462" cy="284" r="3"/>
      <circle cx="478" cy="284" r="3"/>
      <circle cx="494" cy="284" r="3"/>
    </g>
  </g>
  <g filter="url(#glow)" stroke="url(#cyanBlue)" stroke-width="24" stroke-linecap="round" stroke-linejoin="round" fill="none">
    <path d="M330 156v308"/>
    <path d="M393 166v292"/>
    <path d="M285 188l-70 48v198l70 48"/>
    <path d="M430 190l78 50"/>
    <path d="M430 260h82"/>
    <path d="M430 318h90"/>
    <path d="M430 376h70"/>
    <path d="M430 452l86-54"/>
    <path d="M268 325l20 20-20 20"/>
    <path d="M314 366h28"/>
  </g>
  <text x="360" y="565" text-anchor="middle" fill="#edf4ff" font-family="Inter, Arial, sans-serif" font-size="68" font-weight="700" letter-spacing="8">JEJO</text>
  <g fill="#21c8ff" font-family="Inter, Arial, sans-serif" font-size="28" font-weight="500" letter-spacing="18">
    <text x="360" y="632" text-anchor="middle">STUDIOS AB</text>
    <rect x="140" y="618" width="70" height="4" rx="2"/>
    <rect x="510" y="618" width="70" height="4" rx="2"/>
  </g>
</svg>
